<?xml version="1.0" encoding="UTF-8"?>
<svg xmlns="http://www.w3.org/2000/svg" xmlns:xlink="http://www.w3.org/1999/xlink" width="32px" height="32px" viewBox="0 0 32 32" version="1.1">
<g id="surface1">
<path style="fill:none;stroke-width:1;stroke-linecap:round;stroke-linejoin:round;stroke:rgb(0%,0%,0%);stroke-opacity:1;stroke-miterlimit:4;" d="M 7.5 9.498047 L 40.5 9.498047 C 42.158203 9.498047 43.5 10.845703 43.5 12.498047 L 43.5 35.501953 C 43.5 37.154297 42.158203 38.501953 40.5 38.501953 L 7.5 38.501953 C 5.841797 38.501953 4.5 37.154297 4.5 35.501953 L 4.5 12.498047 C 4.5 10.845703 5.841797 9.498047 7.5 9.498047 Z M 7.5 9.498047 " transform="matrix(0.666667,0,0,0.666667,0,0)"/>
<path style="fill:none;stroke-width:1;stroke-linecap:round;stroke-linejoin:round;stroke:rgb(0%,0%,0%);stroke-opacity:1;stroke-miterlimit:4;" d="M 4.5 16.5 L 43.5 16.5 " transform="matrix(0.666667,0,0,0.666667,0,0)"/>
<path style="fill:none;stroke-width:1;stroke-linecap:round;stroke-linejoin:round;stroke:rgb(0%,0%,0%);stroke-opacity:1;stroke-miterlimit:4;" d="M 33.498047 34.5 L 33.498047 32.501953 " transform="matrix(0.666667,0,0,0.666667,0,0)"/>
<path style="fill:none;stroke-width:1;stroke-linecap:round;stroke-linejoin:round;stroke:rgb(0%,0%,0%);stroke-opacity:1;stroke-miterlimit:4;" d="M 36.498047 34.5 L 36.498047 32.501953 " transform="matrix(0.666667,0,0,0.666667,0,0)"/>
<path style="fill:none;stroke-width:1;stroke-linecap:round;stroke-linejoin:round;stroke:rgb(0%,0%,0%);stroke-opacity:1;stroke-miterlimit:4;" d="M 39.498047 34.5 L 39.498047 32.501953 " transform="matrix(0.666667,0,0,0.666667,0,0)"/>
</g>
</svg>
