<?xml version="1.0" encoding="UTF-8"?>
<svg xmlns="http://www.w3.org/2000/svg" xmlns:xlink="http://www.w3.org/1999/xlink" width="33px" height="33px" viewBox="0 0 33 33" version="1.1">
<g id="surface1">
<path style=" stroke:none;fill-rule:nonzero;fill:rgb(0%,0%,0%);fill-opacity:1;" d="M 31.175781 26.367188 L 29.601562 26.367188 C 29.394531 26.367188 29.226562 26.199219 29.226562 25.992188 C 29.226562 25.785156 29.394531 25.621094 29.601562 25.621094 L 31.175781 25.621094 C 31.769531 25.621094 32.253906 25.136719 32.253906 24.542969 L 32.253906 19.613281 C 32.253906 18.882812 31.949219 17.722656 31.589844 17.085938 L 27.867188 10.476562 C 27.539062 9.894531 26.699219 9.40625 26.03125 9.40625 L 23.636719 9.40625 C 23.046875 9.40625 22.5625 9.886719 22.5625 10.480469 L 22.5625 16.714844 C 22.5625 17.308594 23.046875 17.792969 23.636719 17.792969 L 28.710938 17.792969 C 28.917969 17.792969 29.085938 17.957031 29.085938 18.164062 C 29.085938 18.371094 28.917969 18.539062 28.710938 18.539062 L 23.636719 18.539062 C 22.632812 18.539062 21.816406 17.71875 21.816406 16.714844 L 21.816406 10.480469 C 21.816406 9.476562 22.632812 8.65625 23.636719 8.65625 L 26.03125 8.65625 C 26.964844 8.65625 28.058594 9.296875 28.515625 10.109375 L 32.242188 16.71875 C 32.667969 17.472656 33 18.746094 33 19.613281 L 33 24.542969 C 33 25.546875 32.183594 26.367188 31.175781 26.367188 Z M 31.175781 26.367188 "/>
<path style=" stroke:none;fill-rule:nonzero;fill:rgb(0%,0%,0%);fill-opacity:1;" d="M 18.234375 7.988281 C 17.746094 7.988281 17.335938 7.476562 17.335938 6.867188 L 17.335938 5.8125 C 17.335938 4.785156 16.5 3.945312 15.46875 3.945312 L 1.867188 3.945312 C 0.835938 3.945312 0 4.785156 0 5.8125 L 0 24.5 C 0 25.527344 0.835938 26.367188 1.867188 26.367188 L 5 26.367188 C 5.1875 27.878906 6.476562 29.054688 8.039062 29.054688 C 9.726562 29.054688 11.097656 27.679688 11.097656 25.992188 C 11.097656 24.304688 9.726562 22.933594 8.039062 22.933594 C 7.472656 22.933594 6.917969 23.089844 6.4375 23.382812 C 6.261719 23.492188 6.207031 23.722656 6.316406 23.898438 C 6.421875 24.074219 6.652344 24.128906 6.828125 24.019531 C 7.191406 23.796875 7.609375 23.679688 8.039062 23.679688 C 9.3125 23.679688 10.351562 24.71875 10.351562 25.992188 C 10.351562 27.269531 9.3125 28.308594 8.039062 28.308594 C 6.761719 28.308594 5.722656 27.269531 5.722656 25.992188 C 5.722656 25.785156 5.554688 25.621094 5.351562 25.621094 C 5.328125 25.621094 1.867188 25.621094 1.867188 25.621094 C 1.25 25.621094 0.746094 25.117188 0.746094 24.5 L 0.746094 5.8125 C 0.746094 5.195312 1.25 4.691406 1.867188 4.691406 L 15.46875 4.691406 C 16.089844 4.691406 16.589844 5.195312 16.589844 5.8125 L 16.589844 6.867188 C 16.589844 7.898438 17.328125 8.734375 18.234375 8.734375 C 18.71875 8.734375 19.128906 9.246094 19.128906 9.855469 L 19.128906 24.5 C 19.128906 25.117188 18.625 25.621094 18.007812 25.621094 L 12.933594 25.621094 C 12.726562 25.621094 12.558594 25.785156 12.558594 25.992188 C 12.558594 26.199219 12.726562 26.367188 12.933594 26.367188 L 18.007812 26.367188 C 19.039062 26.367188 19.875 25.527344 19.875 24.5 L 19.875 9.855469 C 19.875 8.824219 19.136719 7.988281 18.234375 7.988281 Z M 18.234375 7.988281 "/>
<path style=" stroke:none;fill-rule:nonzero;fill:rgb(0%,0%,0%);fill-opacity:1;" d="M 25.199219 22.933594 C 24.632812 22.933594 24.078125 23.089844 23.597656 23.382812 C 23.421875 23.492188 23.367188 23.722656 23.476562 23.898438 C 23.585938 24.074219 23.816406 24.128906 23.992188 24.019531 C 24.351562 23.796875 24.769531 23.679688 25.199219 23.679688 C 26.476562 23.679688 27.515625 24.71875 27.515625 25.992188 C 27.515625 27.269531 26.476562 28.308594 25.199219 28.308594 C 23.925781 28.308594 22.886719 27.269531 22.886719 25.992188 C 22.886719 25.785156 22.71875 25.621094 22.511719 25.621094 L 20.84375 25.621094 C 20.640625 25.621094 20.472656 25.785156 20.472656 25.992188 C 20.472656 26.199219 20.640625 26.367188 20.84375 26.367188 L 22.164062 26.367188 C 22.347656 27.878906 23.640625 29.054688 25.199219 29.054688 C 26.886719 29.054688 28.261719 27.679688 28.261719 25.992188 C 28.261719 24.304688 26.886719 22.933594 25.199219 22.933594 Z M 25.199219 22.933594 "/>
</g>
</svg>
