<?xml version="1.0" encoding="UTF-8"?>
<svg xmlns="http://www.w3.org/2000/svg" xmlns:xlink="http://www.w3.org/1999/xlink" width="33px" height="33px" viewBox="0 0 33 33" version="1.1">
<g id="surface1">
<path style=" stroke:none;fill-rule:nonzero;fill:rgb(0%,0%,0%);fill-opacity:1;" d="M 32.59375 14.769531 C 32.816406 14.769531 33 14.585938 33 14.363281 L 33 6.808594 C 33 5.941406 32.347656 5.054688 31.519531 4.796875 L 17.816406 0.527344 C 17.078125 0.296875 15.921875 0.296875 15.183594 0.527344 L 1.480469 4.796875 C 0.652344 5.054688 0 5.941406 0 6.808594 L 0 26.191406 C 0 27.0625 0.652344 27.945312 1.480469 28.207031 L 15.183594 32.472656 C 15.546875 32.585938 16.011719 32.644531 16.476562 32.644531 C 16.957031 32.644531 17.441406 32.582031 17.816406 32.464844 L 20.207031 31.695312 C 20.417969 31.628906 20.457031 31.488281 20.457031 31.226562 L 20.414062 22.882812 C 20.410156 22.660156 20.402344 22.4375 19.824219 22.527344 L 18.921875 22.652344 L 21.042969 18.246094 L 23.191406 21.890625 L 22.449219 22.058594 C 22.449219 22.058594 22.125 22.089844 22.125 22.457031 C 22.125 24.507812 22.109375 30.660156 22.109375 30.660156 C 22.109375 31.121094 22.449219 31.082031 22.636719 31.046875 L 27.664062 29.425781 C 27.855469 29.363281 27.945312 29.277344 27.945312 28.90625 L 27.90625 21.457031 C 27.90625 20.941406 27.664062 20.863281 27.441406 20.898438 L 26.488281 21.035156 L 28.398438 16.863281 L 30.46875 20.320312 L 29.59375 20.492188 C 29.375 20.535156 29.28125 20.675781 29.28125 20.992188 L 29.28125 28.519531 C 29.28125 28.839844 29.480469 29.085938 29.859375 28.898438 L 31.5625 28.265625 C 32.367188 27.964844 33 27.054688 33 26.191406 L 33 18.648438 C 33 18.421875 32.820312 18.242188 32.59375 18.242188 C 32.371094 18.242188 32.1875 18.421875 32.1875 18.648438 L 32.1875 26.191406 C 32.1875 26.710938 31.765625 27.324219 31.28125 27.503906 L 30.089844 27.949219 L 30.089844 21.222656 L 30.757812 21.089844 C 31.003906 21.042969 31.199219 20.894531 31.289062 20.6875 C 31.382812 20.476562 31.363281 20.234375 31.234375 20.019531 L 28.925781 16.167969 C 28.785156 15.933594 28.570312 15.808594 28.339844 15.820312 C 28.109375 15.832031 27.910156 15.980469 27.796875 16.230469 L 25.625 20.972656 C 25.511719 21.21875 25.527344 21.464844 25.667969 21.652344 C 25.785156 21.808594 25.96875 21.890625 26.179688 21.890625 C 26.222656 21.890625 26.261719 21.890625 26.304688 21.882812 L 27.097656 21.765625 L 27.132812 28.746094 L 22.921875 30.105469 L 22.933594 22.78125 C 22.933594 22.78125 23.277344 22.71875 23.453125 22.660156 C 23.695312 22.582031 23.898438 22.449219 23.988281 22.230469 C 24.082031 22.015625 24.0625 21.765625 23.933594 21.546875 L 21.59375 17.585938 C 21.453125 17.347656 21.238281 17.214844 21 17.222656 C 20.761719 17.234375 20.554688 17.382812 20.433594 17.636719 L 18.066406 22.554688 C 17.949219 22.804688 17.957031 23.058594 18.097656 23.25 C 18.21875 23.414062 18.40625 23.503906 18.628906 23.503906 C 18.667969 23.503906 18.710938 23.5 18.753906 23.492188 L 19.605469 23.375 L 19.644531 31.023438 L 17.570312 31.691406 C 16.988281 31.878906 16.007812 31.882812 15.425781 31.699219 L 1.722656 27.433594 C 1.238281 27.28125 0.8125 26.703125 0.8125 26.191406 L 0.8125 6.808594 C 0.8125 6.300781 1.238281 5.722656 1.722656 5.570312 L 15.425781 1.300781 C 16.007812 1.121094 16.992188 1.121094 17.574219 1.300781 L 31.277344 5.570312 C 31.765625 5.722656 32.191406 6.300781 32.191406 6.808594 L 32.191406 14.363281 C 32.1875 14.585938 32.371094 14.769531 32.59375 14.769531 Z M 32.59375 14.769531 "/>
<path style=" stroke:none;fill-rule:nonzero;fill:rgb(0%,0%,0%);fill-opacity:1;" d="M 29.425781 7.890625 L 17.347656 11.65625 C 16.894531 11.796875 16.101562 11.796875 15.652344 11.65625 L 3.574219 7.890625 C 3.359375 7.824219 3.132812 7.945312 3.066406 8.160156 C 3 8.371094 3.117188 8.597656 3.332031 8.664062 L 15.410156 12.429688 C 15.714844 12.523438 16.109375 12.570312 16.5 12.570312 C 16.890625 12.570312 17.285156 12.523438 17.589844 12.429688 L 29.667969 8.664062 C 29.882812 8.597656 30 8.371094 29.933594 8.160156 C 29.867188 7.945312 29.640625 7.824219 29.425781 7.890625 Z M 29.425781 7.890625 "/>
</g>
</svg>
