<?xml version="1.0" encoding="UTF-8"?>
<svg xmlns="http://www.w3.org/2000/svg" xmlns:xlink="http://www.w3.org/1999/xlink" width="33px" height="33px" viewBox="0 0 33 33" version="1.1">
<g id="surface1">
<path style="fill:none;stroke-width:2;stroke-linecap:round;stroke-linejoin:round;stroke:rgb(0%,0%,0%);stroke-opacity:1;stroke-miterlimit:4;" d="M 8 12 L 8.011364 12 M 12 12 L 12.011364 12 M 16 12 L 16.011364 12 M 21.002841 12 C 21.002841 16.971591 16.974432 21 12.002841 21 C 9.96875 21 3.005682 21 3.005682 21 C 3.005682 21 4.5625 17.255682 3.940341 16 C 3.340909 14.795455 3.002841 13.4375 3.002841 12 C 3.002841 7.028409 7.034091 3 12.002841 3 C 16.974432 3 21.002841 7.028409 21.002841 12 Z M 21.002841 12 " transform="matrix(1.375,0,0,1.375,0,0)"/>
</g>
</svg>
