<?xml version="1.0" encoding="UTF-8"?>
<svg xmlns="http://www.w3.org/2000/svg" xmlns:xlink="http://www.w3.org/1999/xlink" width="33px" height="33px" viewBox="0 0 33 33" version="1.1">
<g id="surface1">
<path style=" stroke:none;fill-rule:nonzero;fill:rgb(0%,0%,0%);fill-opacity:1;" d="M 24.199219 23.101562 L 19.800781 23.101562 C 19.496094 23.101562 19.25 23.347656 19.25 23.648438 L 19.25 26.949219 C 19.25 27.253906 19.496094 27.5 19.800781 27.5 L 24.199219 27.5 C 24.503906 27.5 24.75 27.253906 24.75 26.949219 L 24.75 23.648438 C 24.75 23.347656 24.503906 23.101562 24.199219 23.101562 Z M 23.648438 26.398438 L 20.351562 26.398438 L 20.351562 24.199219 L 23.648438 24.199219 Z M 23.648438 26.398438 "/>
<path style=" stroke:none;fill-rule:nonzero;fill:rgb(0%,0%,0%);fill-opacity:1;" d="M 21.449219 15.398438 L 25.851562 15.398438 C 26.152344 15.398438 26.398438 15.152344 26.398438 14.851562 L 26.398438 11.550781 C 26.398438 11.246094 26.152344 11 25.851562 11 L 21.449219 11 C 21.144531 11 20.898438 11.246094 20.898438 11.550781 L 20.898438 14.851562 C 20.898438 15.152344 21.144531 15.398438 21.449219 15.398438 Z M 22 12.101562 L 25.300781 12.101562 L 25.300781 14.300781 L 22 14.300781 Z M 22 12.101562 "/>
<path style=" stroke:none;fill-rule:nonzero;fill:rgb(0%,0%,0%);fill-opacity:1;" d="M 10.449219 17.601562 L 3.851562 17.601562 C 3.546875 17.601562 3.300781 17.847656 3.300781 18.148438 L 3.300781 22.550781 C 3.300781 22.855469 3.546875 23.101562 3.851562 23.101562 L 10.449219 23.101562 C 10.753906 23.101562 11 22.855469 11 22.550781 L 11 18.148438 C 11 17.847656 10.753906 17.601562 10.449219 17.601562 Z M 9.898438 22 L 4.398438 22 L 4.398438 18.699219 L 9.898438 18.699219 Z M 9.898438 22 "/>
<path style=" stroke:none;fill-rule:nonzero;fill:rgb(0%,0%,0%);fill-opacity:1;" d="M 15.398438 11.550781 L 15.398438 7.148438 C 15.398438 6.847656 15.152344 6.601562 14.851562 6.601562 L 8.25 6.601562 C 7.945312 6.601562 7.699219 6.847656 7.699219 7.148438 L 7.699219 11.550781 C 7.699219 11.855469 7.945312 12.101562 8.25 12.101562 L 14.851562 12.101562 C 15.152344 12.101562 15.398438 11.855469 15.398438 11.550781 Z M 14.300781 11 L 8.800781 11 L 8.800781 7.699219 L 14.300781 7.699219 Z M 14.300781 11 "/>
<path style=" stroke:none;fill-rule:nonzero;fill:rgb(0%,0%,0%);fill-opacity:1;" d="M 32.449219 18.699219 L 30.800781 18.699219 L 30.800781 10.449219 C 30.800781 9.539062 30.0625 8.800781 29.148438 8.800781 L 18.699219 8.800781 L 18.699219 4.949219 C 18.699219 4.039062 17.960938 3.300781 17.050781 3.300781 L 6.050781 3.300781 C 5.136719 3.300781 4.398438 4.039062 4.398438 4.949219 L 4.398438 14.300781 L 1.648438 14.300781 C 0.738281 14.300781 0 15.039062 0 15.949219 L 0 29.148438 C 0 29.453125 0.246094 29.699219 0.550781 29.699219 L 32.449219 29.699219 C 32.753906 29.699219 33 29.453125 33 29.148438 L 33 19.25 C 33 18.945312 32.753906 18.699219 32.449219 18.699219 Z M 29.699219 10.449219 L 29.699219 18.699219 L 27.5 18.699219 L 27.5 18.148438 C 27.5 17.238281 26.761719 16.5 25.851562 16.5 L 17.601562 16.5 L 17.601562 10.449219 C 17.601562 10.144531 17.847656 9.898438 18.148438 9.898438 L 29.148438 9.898438 C 29.453125 9.898438 29.699219 10.144531 29.699219 10.449219 Z M 5.5 4.949219 C 5.5 4.644531 5.746094 4.398438 6.050781 4.398438 L 17.050781 4.398438 C 17.355469 4.398438 17.601562 4.644531 17.601562 4.949219 L 17.601562 8.894531 C 17.597656 8.894531 17.597656 8.894531 17.59375 8.894531 C 17.558594 8.910156 17.523438 8.921875 17.492188 8.9375 C 17.484375 8.941406 17.476562 8.945312 17.46875 8.945312 C 17.4375 8.960938 17.40625 8.976562 17.375 8.992188 C 17.371094 8.996094 17.371094 8.996094 17.367188 8.996094 C 17.335938 9.015625 17.300781 9.035156 17.269531 9.054688 C 17.265625 9.058594 17.257812 9.0625 17.25 9.066406 C 17.21875 9.085938 17.1875 9.109375 17.160156 9.128906 C 17.15625 9.132812 17.15625 9.132812 17.152344 9.136719 C 17.125 9.15625 17.097656 9.179688 17.070312 9.203125 C 17.066406 9.207031 17.058594 9.210938 17.054688 9.21875 C 17.027344 9.242188 17 9.265625 16.976562 9.292969 C 16.96875 9.296875 16.964844 9.300781 16.960938 9.304688 C 16.9375 9.328125 16.917969 9.355469 16.894531 9.378906 C 16.890625 9.382812 16.886719 9.386719 16.882812 9.394531 C 16.859375 9.421875 16.835938 9.449219 16.816406 9.480469 C 16.8125 9.484375 16.808594 9.492188 16.800781 9.5 C 16.78125 9.527344 16.761719 9.558594 16.742188 9.589844 C 16.742188 9.589844 16.742188 9.589844 16.738281 9.59375 C 16.71875 9.625 16.703125 9.65625 16.6875 9.691406 C 16.683594 9.699219 16.679688 9.703125 16.675781 9.710938 C 16.65625 9.746094 16.640625 9.777344 16.628906 9.8125 C 16.625 9.816406 16.625 9.820312 16.621094 9.824219 C 16.609375 9.855469 16.597656 9.890625 16.585938 9.921875 C 16.585938 9.929688 16.582031 9.9375 16.578125 9.945312 C 16.566406 9.980469 16.558594 10.015625 16.550781 10.050781 C 16.546875 10.058594 16.546875 10.066406 16.542969 10.074219 C 16.535156 10.105469 16.527344 10.140625 16.523438 10.175781 C 16.523438 10.179688 16.519531 10.183594 16.519531 10.191406 C 16.515625 10.226562 16.511719 10.265625 16.507812 10.304688 C 16.507812 10.3125 16.503906 10.320312 16.503906 10.332031 C 16.503906 10.371094 16.5 10.410156 16.5 10.449219 L 16.5 16.5 L 14.851562 16.5 C 14.804688 16.5 14.761719 16.503906 14.722656 16.503906 C 14.714844 16.507812 14.707031 16.507812 14.699219 16.507812 C 14.65625 16.511719 14.617188 16.515625 14.578125 16.523438 C 14.570312 16.523438 14.5625 16.527344 14.554688 16.527344 C 14.511719 16.535156 14.472656 16.542969 14.433594 16.554688 C 14.429688 16.554688 14.429688 16.554688 14.425781 16.554688 C 14.386719 16.566406 14.347656 16.578125 14.3125 16.589844 C 14.308594 16.589844 14.304688 16.59375 14.300781 16.59375 L 14.300781 15.949219 C 14.300781 15.039062 13.5625 14.300781 12.648438 14.300781 L 5.5 14.300781 Z M 1.101562 15.949219 C 1.101562 15.644531 1.347656 15.398438 1.648438 15.398438 L 12.648438 15.398438 C 12.953125 15.398438 13.199219 15.644531 13.199219 15.949219 L 13.199219 28.601562 L 1.101562 28.601562 Z M 14.300781 18.148438 C 14.300781 17.847656 14.546875 17.601562 14.851562 17.601562 L 25.851562 17.601562 C 26.152344 17.601562 26.398438 17.847656 26.398438 18.148438 L 26.398438 28.601562 L 14.300781 28.601562 Z M 31.898438 28.601562 L 27.5 28.601562 L 27.5 19.800781 L 31.898438 19.800781 Z M 31.898438 28.601562 "/>
</g>
</svg>
