<?xml version="1.0" encoding="UTF-8"?>
<svg xmlns="http://www.w3.org/2000/svg" xmlns:xlink="http://www.w3.org/1999/xlink" width="33px" height="33px" viewBox="0 0 33 33" version="1.1">
<g id="surface1">
<path style=" stroke:none;fill-rule:nonzero;fill:rgb(0%,0%,0%);fill-opacity:1;" d="M 29.332031 9.359375 C 28.824219 9.359375 28.410156 9.773438 28.410156 10.28125 L 28.410156 27.054688 C 28.410156 28.828125 26.96875 30.269531 25.195312 30.269531 L 5.050781 30.269531 C 3.28125 30.269531 1.835938 28.828125 1.835938 27.054688 L 1.835938 6.910156 C 1.835938 5.136719 3.28125 3.695312 5.050781 3.695312 L 25.195312 3.695312 C 25.703125 3.695312 26.117188 3.285156 26.117188 2.777344 C 26.117188 2.269531 25.703125 1.859375 25.195312 1.859375 L 5.050781 1.859375 C 2.265625 1.859375 0 4.125 0 6.910156 L 0 27.054688 C 0 29.839844 2.265625 32.109375 5.050781 32.109375 L 25.195312 32.109375 C 27.984375 32.109375 30.25 29.839844 30.25 27.054688 L 30.25 10.28125 C 30.25 9.773438 29.839844 9.359375 29.332031 9.359375 Z M 29.332031 9.359375 "/>
<path style=" stroke:none;fill-rule:nonzero;fill:rgb(0%,0%,0%);fill-opacity:1;" d="M 32.730469 1.160156 C 32.371094 0.804688 31.789062 0.804688 31.433594 1.160156 L 12.972656 19.621094 L 8.359375 15.007812 C 8 14.648438 7.417969 14.648438 7.058594 15.007812 C 6.699219 15.367188 6.699219 15.949219 7.058594 16.304688 L 12.324219 21.570312 C 12.503906 21.75 12.738281 21.839844 12.972656 21.839844 C 13.207031 21.839844 13.445312 21.75 13.621094 21.570312 C 13.621094 21.570312 13.621094 21.566406 13.625 21.566406 L 32.730469 2.460938 C 33.089844 2.101562 33.089844 1.519531 32.730469 1.160156 Z M 32.730469 1.160156 "/>
</g>
</svg>
