<?xml version="1.0" encoding="UTF-8"?>
<svg xmlns="http://www.w3.org/2000/svg" xmlns:xlink="http://www.w3.org/1999/xlink" width="33px" height="33px" viewBox="0 0 33 33" version="1.1">
<g id="surface1">
<path style=" stroke:none;fill-rule:nonzero;fill:rgb(0%,0%,0%);fill-opacity:1;" d="M 30.421875 3.867188 L 29.90625 3.867188 L 29.90625 2.835938 C 29.90625 1.984375 29.210938 1.289062 28.359375 1.289062 C 27.507812 1.289062 26.8125 1.984375 26.8125 2.835938 L 26.8125 3.867188 L 6.1875 3.867188 L 6.1875 2.835938 C 6.1875 1.984375 5.492188 1.289062 4.640625 1.289062 C 3.789062 1.289062 3.09375 1.984375 3.09375 2.835938 L 3.09375 3.867188 L 2.578125 3.867188 C 1.15625 3.867188 0 5.023438 0 6.445312 L 0 29.132812 C 0 30.554688 1.15625 31.710938 2.578125 31.710938 L 30.421875 31.710938 C 31.84375 31.710938 33 30.554688 33 29.132812 L 33 6.445312 C 33 5.023438 31.84375 3.867188 30.421875 3.867188 Z M 27.84375 2.835938 C 27.84375 2.550781 28.074219 2.320312 28.359375 2.320312 C 28.644531 2.320312 28.875 2.550781 28.875 2.835938 L 28.875 5.929688 C 28.875 6.214844 28.644531 6.445312 28.359375 6.445312 C 28.074219 6.445312 27.84375 6.214844 27.84375 5.929688 Z M 4.640625 2.320312 C 4.925781 2.320312 5.15625 2.550781 5.15625 2.835938 L 5.15625 5.929688 C 5.15625 6.214844 4.925781 6.445312 4.640625 6.445312 C 4.355469 6.445312 4.125 6.214844 4.125 5.929688 L 4.125 2.835938 C 4.125 2.550781 4.355469 2.320312 4.640625 2.320312 Z M 30.421875 30.679688 L 2.578125 30.679688 C 1.726562 30.679688 1.03125 29.984375 1.03125 29.132812 L 1.03125 9.539062 L 25.78125 9.539062 C 26.066406 9.539062 26.296875 9.308594 26.296875 9.023438 C 26.296875 8.738281 26.066406 8.507812 25.78125 8.507812 L 1.03125 8.507812 L 1.03125 6.445312 C 1.03125 5.59375 1.726562 4.898438 2.578125 4.898438 L 3.09375 4.898438 L 3.09375 5.929688 C 3.09375 6.78125 3.789062 7.476562 4.640625 7.476562 C 5.492188 7.476562 6.1875 6.78125 6.1875 5.929688 L 6.1875 4.898438 L 26.8125 4.898438 L 26.8125 5.929688 C 26.8125 6.78125 27.507812 7.476562 28.359375 7.476562 C 29.210938 7.476562 29.90625 6.78125 29.90625 5.929688 L 29.90625 4.898438 L 30.421875 4.898438 C 31.273438 4.898438 31.96875 5.59375 31.96875 6.445312 L 31.96875 8.507812 L 30.9375 8.507812 C 30.652344 8.507812 30.421875 8.738281 30.421875 9.023438 C 30.421875 9.308594 30.652344 9.539062 30.9375 9.539062 L 31.96875 9.539062 L 31.96875 29.132812 C 31.96875 29.984375 31.273438 30.679688 30.421875 30.679688 Z M 30.421875 30.679688 "/>
<path style=" stroke:none;fill-rule:nonzero;fill:rgb(0%,0%,0%);fill-opacity:1;" d="M 28.875 8.507812 L 27.84375 8.507812 C 27.558594 8.507812 27.328125 8.738281 27.328125 9.023438 C 27.328125 9.308594 27.558594 9.539062 27.84375 9.539062 L 28.875 9.539062 C 29.160156 9.539062 29.390625 9.308594 29.390625 9.023438 C 29.390625 8.738281 29.160156 8.507812 28.875 8.507812 Z M 28.875 8.507812 "/>
<path style=" stroke:none;fill-rule:nonzero;fill:rgb(0%,0%,0%);fill-opacity:1;" d="M 12.992188 16.355469 L 15.832031 13.511719 C 15.84375 13.5 15.855469 13.488281 15.867188 13.476562 C 15.871094 13.46875 15.875 13.464844 15.878906 13.457031 C 15.886719 13.449219 15.890625 13.441406 15.898438 13.433594 C 15.902344 13.425781 15.90625 13.421875 15.910156 13.414062 C 15.914062 13.40625 15.917969 13.398438 15.921875 13.390625 C 15.925781 13.382812 15.929688 13.375 15.933594 13.367188 C 15.9375 13.359375 15.941406 13.351562 15.945312 13.347656 C 15.949219 13.339844 15.949219 13.332031 15.953125 13.324219 C 15.957031 13.316406 15.960938 13.304688 15.960938 13.296875 C 15.964844 13.289062 15.964844 13.28125 15.96875 13.273438 C 15.96875 13.265625 15.972656 13.257812 15.972656 13.25 C 15.976562 13.238281 15.976562 13.230469 15.976562 13.222656 C 15.980469 13.214844 15.980469 13.207031 15.980469 13.199219 C 15.984375 13.164062 15.984375 13.132812 15.980469 13.097656 C 15.980469 13.089844 15.980469 13.082031 15.976562 13.074219 C 15.976562 13.066406 15.976562 13.058594 15.972656 13.046875 C 15.972656 13.039062 15.96875 13.03125 15.96875 13.023438 C 15.964844 13.015625 15.964844 13.007812 15.960938 13 C 15.960938 12.992188 15.957031 12.984375 15.953125 12.972656 C 15.949219 12.964844 15.949219 12.957031 15.945312 12.953125 C 15.941406 12.945312 15.9375 12.9375 15.933594 12.929688 C 15.929688 12.921875 15.925781 12.914062 15.921875 12.90625 C 15.917969 12.898438 15.914062 12.890625 15.910156 12.882812 C 15.90625 12.875 15.902344 12.871094 15.898438 12.863281 C 15.890625 12.855469 15.886719 12.847656 15.878906 12.839844 C 15.875 12.832031 15.871094 12.828125 15.867188 12.820312 C 15.847656 12.796875 15.820312 12.769531 15.796875 12.75 C 15.789062 12.746094 15.785156 12.742188 15.777344 12.738281 C 15.769531 12.730469 15.761719 12.726562 15.753906 12.71875 C 15.746094 12.714844 15.742188 12.710938 15.734375 12.707031 C 15.726562 12.703125 15.71875 12.699219 15.710938 12.695312 C 15.703125 12.691406 15.695312 12.6875 15.6875 12.683594 C 15.679688 12.679688 15.671875 12.675781 15.664062 12.671875 C 15.660156 12.667969 15.652344 12.667969 15.644531 12.664062 C 15.636719 12.660156 15.625 12.65625 15.617188 12.65625 C 15.609375 12.652344 15.601562 12.652344 15.597656 12.648438 C 15.585938 12.648438 15.578125 12.644531 15.570312 12.644531 C 15.5625 12.640625 15.550781 12.640625 15.542969 12.640625 C 15.535156 12.636719 15.527344 12.636719 15.519531 12.636719 C 15.503906 12.632812 15.488281 12.632812 15.472656 12.632812 C 15.472656 12.632812 15.46875 12.632812 15.46875 12.632812 L 9.796875 12.632812 C 9.511719 12.632812 9.28125 12.863281 9.28125 13.148438 C 9.28125 13.433594 9.511719 13.664062 9.796875 13.664062 L 14.222656 13.664062 L 11.496094 16.394531 C 11.484375 16.40625 11.472656 16.417969 11.460938 16.429688 C 11.457031 16.4375 11.453125 16.441406 11.445312 16.449219 C 11.441406 16.457031 11.433594 16.464844 11.429688 16.472656 C 11.425781 16.480469 11.421875 16.488281 11.417969 16.492188 C 11.414062 16.5 11.40625 16.507812 11.402344 16.515625 C 11.398438 16.523438 11.398438 16.53125 11.394531 16.539062 C 11.390625 16.546875 11.386719 16.554688 11.382812 16.5625 C 11.378906 16.570312 11.375 16.578125 11.375 16.582031 C 11.371094 16.59375 11.367188 16.601562 11.367188 16.609375 C 11.363281 16.617188 11.363281 16.625 11.359375 16.632812 C 11.355469 16.640625 11.355469 16.648438 11.351562 16.65625 C 11.351562 16.667969 11.351562 16.675781 11.347656 16.683594 C 11.347656 16.691406 11.347656 16.699219 11.347656 16.707031 C 11.34375 16.742188 11.34375 16.773438 11.347656 16.808594 C 11.347656 16.816406 11.347656 16.824219 11.347656 16.832031 C 11.351562 16.839844 11.351562 16.847656 11.351562 16.859375 C 11.355469 16.867188 11.355469 16.875 11.359375 16.882812 C 11.363281 16.890625 11.363281 16.898438 11.367188 16.90625 C 11.367188 16.917969 11.371094 16.925781 11.375 16.933594 C 11.375 16.941406 11.378906 16.949219 11.382812 16.957031 C 11.386719 16.964844 11.390625 16.96875 11.394531 16.976562 C 11.398438 16.984375 11.398438 16.992188 11.402344 17 C 11.40625 17.007812 11.414062 17.015625 11.417969 17.023438 C 11.421875 17.03125 11.425781 17.039062 11.429688 17.042969 C 11.433594 17.050781 11.441406 17.058594 11.445312 17.066406 C 11.453125 17.074219 11.457031 17.078125 11.460938 17.085938 C 11.480469 17.109375 11.503906 17.136719 11.53125 17.15625 C 11.539062 17.160156 11.542969 17.164062 11.550781 17.167969 C 11.558594 17.175781 11.566406 17.179688 11.574219 17.1875 C 11.578125 17.191406 11.585938 17.195312 11.59375 17.199219 C 11.601562 17.203125 11.609375 17.207031 11.617188 17.210938 C 11.625 17.214844 11.632812 17.21875 11.636719 17.222656 C 11.644531 17.226562 11.652344 17.230469 11.660156 17.234375 C 11.667969 17.238281 11.675781 17.238281 11.683594 17.242188 C 11.691406 17.246094 11.699219 17.25 11.710938 17.25 C 11.71875 17.253906 11.722656 17.253906 11.730469 17.257812 C 11.742188 17.257812 11.75 17.261719 11.757812 17.261719 C 11.765625 17.265625 11.777344 17.265625 11.785156 17.269531 C 11.792969 17.269531 11.800781 17.269531 11.808594 17.269531 C 11.824219 17.273438 11.84375 17.273438 11.859375 17.273438 C 14.417969 17.273438 16.5 19.355469 16.5 21.914062 C 16.5 24.472656 14.417969 26.554688 11.859375 26.554688 C 10.636719 26.554688 9.484375 26.082031 8.609375 25.230469 C 8.40625 25.03125 8.082031 25.03125 7.882812 25.234375 C 7.683594 25.441406 7.6875 25.765625 7.890625 25.964844 C 8.957031 27.011719 10.367188 27.585938 11.859375 27.585938 C 14.984375 27.585938 17.53125 25.042969 17.53125 21.914062 C 17.53125 19.175781 15.578125 16.882812 12.992188 16.355469 Z M 12.992188 16.355469 "/>
<path style=" stroke:none;fill-rule:nonzero;fill:rgb(0%,0%,0%);fill-opacity:1;" d="M 22.683594 13.097656 C 22.683594 13.089844 22.683594 13.082031 22.683594 13.074219 C 22.679688 13.066406 22.679688 13.058594 22.675781 13.046875 C 22.675781 13.039062 22.671875 13.03125 22.671875 13.023438 C 22.667969 13.015625 22.667969 13.007812 22.664062 13 C 22.664062 12.992188 22.660156 12.984375 22.65625 12.972656 C 22.652344 12.96875 22.652344 12.960938 22.648438 12.953125 C 22.644531 12.945312 22.640625 12.9375 22.636719 12.929688 C 22.632812 12.921875 22.628906 12.914062 22.625 12.90625 C 22.621094 12.898438 22.617188 12.890625 22.613281 12.882812 C 22.609375 12.878906 22.605469 12.871094 22.601562 12.863281 C 22.59375 12.855469 22.589844 12.847656 22.582031 12.839844 C 22.578125 12.832031 22.574219 12.828125 22.570312 12.820312 C 22.550781 12.796875 22.523438 12.769531 22.5 12.75 C 22.492188 12.746094 22.488281 12.742188 22.480469 12.738281 C 22.472656 12.730469 22.464844 12.726562 22.457031 12.71875 C 22.449219 12.714844 22.445312 12.710938 22.4375 12.707031 C 22.429688 12.703125 22.421875 12.699219 22.414062 12.695312 C 22.40625 12.691406 22.398438 12.6875 22.390625 12.683594 C 22.382812 12.679688 22.378906 12.675781 22.367188 12.671875 C 22.363281 12.667969 22.355469 12.667969 22.347656 12.664062 C 22.339844 12.660156 22.332031 12.65625 22.320312 12.65625 C 22.3125 12.652344 22.308594 12.652344 22.300781 12.648438 C 22.289062 12.648438 22.28125 12.644531 22.273438 12.644531 C 22.265625 12.640625 22.253906 12.640625 22.246094 12.640625 C 22.238281 12.636719 22.230469 12.636719 22.222656 12.636719 C 22.207031 12.632812 22.191406 12.632812 22.175781 12.632812 C 22.175781 12.632812 22.171875 12.632812 22.171875 12.632812 C 22.171875 12.632812 22.167969 12.632812 22.167969 12.632812 C 22.152344 12.632812 22.136719 12.632812 22.121094 12.636719 C 22.113281 12.636719 22.105469 12.636719 22.097656 12.640625 C 22.089844 12.640625 22.078125 12.640625 22.070312 12.644531 C 22.0625 12.644531 22.054688 12.648438 22.042969 12.648438 C 22.035156 12.652344 22.03125 12.652344 22.023438 12.65625 C 22.011719 12.65625 22.003906 12.660156 21.996094 12.664062 C 21.988281 12.667969 21.980469 12.667969 21.976562 12.671875 C 21.964844 12.675781 21.960938 12.679688 21.953125 12.683594 C 21.945312 12.6875 21.9375 12.691406 21.929688 12.695312 C 21.921875 12.699219 21.914062 12.703125 21.90625 12.707031 C 21.898438 12.710938 21.894531 12.714844 21.886719 12.71875 C 21.878906 12.726562 21.871094 12.730469 21.863281 12.738281 C 21.855469 12.742188 21.851562 12.746094 21.84375 12.75 C 21.832031 12.761719 21.820312 12.773438 21.808594 12.785156 L 19.230469 15.363281 C 19.027344 15.5625 19.027344 15.890625 19.230469 16.089844 C 19.328125 16.191406 19.460938 16.242188 19.59375 16.242188 C 19.726562 16.242188 19.859375 16.191406 19.957031 16.089844 L 21.65625 14.394531 L 21.65625 27.070312 C 21.65625 27.355469 21.886719 27.585938 22.171875 27.585938 C 22.457031 27.585938 22.6875 27.355469 22.6875 27.070312 L 22.6875 13.148438 C 22.6875 13.132812 22.6875 13.113281 22.683594 13.097656 Z M 22.683594 13.097656 "/>
</g>
</svg>
