<?xml version="1.0" encoding="UTF-8"?>
<svg xmlns="http://www.w3.org/2000/svg" xmlns:xlink="http://www.w3.org/1999/xlink" width="33px" height="33px" viewBox="0 0 33 33" version="1.1">
<g id="surface1">
<path style="fill:none;stroke-width:2;stroke-linecap:butt;stroke-linejoin:miter;stroke:rgb(41.960784%,42.352941%,43.137255%);stroke-opacity:1;stroke-miterlimit:4;" d="M 19 30 L 0 30 C 0 22.5 6.80303 22.098485 8.901515 21.098485 C 10.19697 20.5 12 19.401515 12 18.401515 C 12 17.901515 11.80303 17.5 11.598485 17.401515 C 9.098485 16.098485 8.598485 11.598485 8.401515 11.598485 C 7.598485 11.598485 7 9.598485 7 8.19697 C 7 7.098485 7.30303 7.098485 7.901515 6.80303 L 7.901515 6.598485 C 7.901515 3 10.401515 -0.0984848 14 -0.0984848 C 17.69697 -0.0984848 20.098485 3.098485 20.098485 6.69697 L 20.098485 6.901515 C 20.69697 7.19697 20.901515 7.401515 20.901515 8.5 C 20.901515 9.901515 20.401515 11.80303 19.598485 11.80303 C 19.401515 11.80303 18.901515 16 16.5 17.401515 C 16.30303 17.5 16.098485 17.69697 16.098485 18.19697 C 16.098485 19.30303 18 20.401515 19.30303 21 C 20.598485 21.598485 25.098485 22.19697 27.098485 25.901515 " transform="matrix(0.515625,0,0,0.515625,0.515625,7.476562)"/>
<path style="fill:none;stroke-width:2;stroke-linecap:butt;stroke-linejoin:miter;stroke:rgb(41.960784%,42.352941%,43.137255%);stroke-opacity:1;stroke-miterlimit:4;" d="M 34.69697 26.19697 C 36.598485 22.30303 41.19697 21.80303 42.80303 21.098485 C 44.098485 20.5 45.901515 19.401515 45.901515 18.401515 C 45.901515 17.901515 45.69697 17.5 45.5 17.401515 C 43 16.098485 42.598485 11.598485 42.401515 11.598485 C 41.598485 11.598485 41 9.598485 41 8.19697 C 41 7.098485 41.30303 7.098485 41.901515 6.80303 L 41.901515 6.598485 C 41.901515 3 44.19697 -0.0984848 47.901515 -0.0984848 C 51.598485 -0.0984848 54.19697 3.098485 54.19697 6.69697 L 54.19697 6.901515 C 54.80303 7.19697 55 7.401515 55 8.5 C 55 9.901515 54.5 11.80303 53.69697 11.80303 C 53.5 11.80303 52.901515 16 50.5 17.401515 C 50.30303 17.5 50.098485 17.69697 50.098485 18.19697 C 50.098485 19.30303 52 20.401515 53.30303 21 C 54.901515 21.80303 62 22.5 62 29.901515 L 42.30303 29.901515 " transform="matrix(0.515625,0,0,0.515625,0.515625,7.476562)"/>
<path style="fill:none;stroke-width:2;stroke-linecap:butt;stroke-linejoin:miter;stroke:rgb(41.960784%,42.352941%,43.137255%);stroke-opacity:1;stroke-miterlimit:4;" d="M 25.80303 27.098485 C 27.098485 26.5 28.901515 25.401515 28.901515 24.401515 C 28.901515 23.901515 28.69697 23.5 28.5 23.401515 C 26 22.098485 25.598485 17.598485 25.401515 17.598485 C 24.598485 17.598485 24 15.598485 24 14.19697 C 24 13.098485 24.30303 13.098485 24.901515 12.80303 L 24.901515 12.69697 C 24.901515 9.098485 27.19697 6 30.901515 6 C 34.598485 6 37.19697 9.19697 37.19697 12.80303 L 37.19697 13 C 37.80303 13.30303 38 13.5 38 14.598485 C 38 16 37.5 17.901515 36.69697 17.901515 C 36.5 17.901515 35.901515 22.098485 33.5 23.5 C 33.30303 23.598485 33.098485 23.80303 33.098485 24.30303 C 33.098485 25.401515 35 26.5 36.30303 27.098485 C 37.901515 27.901515 45 28.598485 45 36 L 16.901515 36 C 16.901515 28.5 23.80303 28.098485 25.80303 27.098485 Z M 25.80303 27.098485 " transform="matrix(0.515625,0,0,0.515625,0.515625,7.476562)"/>
</g>
</svg>
